<?xml version="1.0" standalone="no"?>
<!DOCTYPE svg PUBLIC "-//W3C//DTD SVG 20010904//EN"
 "http://www.w3.org/TR/2001/REC-SVG-20010904/DTD/svg10.dtd">
<svg version="1.0" xmlns="http://www.w3.org/2000/svg"
 width="273.000000pt" height="273.000000pt" viewBox="0 0 273.000000 273.000000"
 preserveAspectRatio="xMidYMid meet">
<metadata>
Created by potrace 1.11, written by Peter Selinger 2001-2013
</metadata>
<g transform="translate(0.000000,273.000000) scale(0.100000,-0.100000)"
fill="#000000" stroke="none">
<path d="M0 1365 l0 -1365 1360 0 1360 0 0 1365 0 1365 -1360 0 -1360 0 0
-1365z m1890 443 c75 -13 184 -69 249 -125 134 -117 221 -330 221 -538 l0 -85
-586 0 -585 0 7 -72 c19 -216 77 -354 193 -461 143 -133 387 -166 583 -77 104
46 210 175 255 309 l22 66 50 3 49 3 -15 -58 c-76 -296 -280 -452 -593 -455
-199 -2 -326 46 -445 166 -86 86 -136 178 -172 314 -34 128 -38 352 -10 477
94 407 383 606 777 533z"/>
<path d="M1613 1726 c-123 -30 -246 -121 -312 -230 -44 -73 -89 -207 -97 -291
l-7 -65 529 2 529 3 -3 60 c-3 78 -34 190 -73 268 -38 75 -136 175 -207 211
-107 54 -243 70 -359 42z"/>
</g>
</svg>
